<?xml version="1.0" encoding="utf-8"?>
<!-- Generator: Adobe Illustrator 21.0.1, SVG Export Plug-In . SVG Version: 6.00 Build 0)  -->
<svg version="1.1" id="Layer_1" xmlns="http://www.w3.org/2000/svg" xmlns:xlink="http://www.w3.org/1999/xlink" x="0px" y="0px"
	 viewBox="0 0 16.3 16.2" style="enable-background:new 0 0 16.3 16.2;" xml:space="preserve">
<style type="text/css">
	.st0{fill:#EEEEEE;}
</style>
<path class="st0" d="M15.3,0.9c0,0-3.2-0.4-6.1,2.5C7.7,4.8,6.6,6.7,5.7,8.3L3.4,7.7L1.9,9.2l2.5,1.3c-0.3,0.5-0.4,0.9-0.4,0.9
	l0.7,0.7c0,0,0.4-0.2,0.9-0.4L7,14.3l1.5-1.5L8,10.6c1.5-0.9,3.4-2.1,4.8-3.4C15.6,4.2,15.3,0.9,15.3,0.9z M12.4,5.3
	c-0.4,0.4-1,0.4-1.5,0c-0.4-0.4-0.4-1,0-1.5c0.4-0.4,1-0.4,1.5,0C12.7,4.2,12.7,4.8,12.4,5.3z"/>
<path class="st0" d="M4.4,14C4,14.2,3.7,14,3,14.1c-0.5,0.1-0.8,0.2-1,0.3c0.1-0.2,0.2-0.5,0.2-0.9c0.1-0.9,0-1.2,0.2-1.5
	c0.2-0.3,0.5-0.6,1.4-0.8C2.6,11,2,11.4,1.8,11.6c-0.4,0.5-0.1,0.9-0.3,1.8c-0.1,0.9-0.5,1.5-0.6,2c0.5-0.3,1.3-0.5,2.1-0.6
	s1.3,0.1,1.7-0.3c0.3-0.2,0.6-0.7,0.5-2C5.1,13.5,4.7,13.9,4.4,14z"/>
</svg>
