<svg id="Layer_1" data-name="Layer 1" xmlns="http://www.w3.org/2000/svg" viewBox="0 0 24 24"><defs><style>.cls-1{fill:#eee;}</style></defs><title>Artboard 1</title><path class="cls-1" d="M22.9,0H1.1A1.11,1.11,0,0,0,0,1.1V22.9A1.11,1.11,0,0,0,1.1,24H22.9A1.11,1.11,0,0,0,24,22.9V1.1A1.11,1.11,0,0,0,22.9,0ZM22,22H2V7H22ZM22,6H2V2H22Z"/><circle class="cls-1" cx="4" cy="4" r="1"/><circle class="cls-1" cx="7" cy="4" r="1"/><circle class="cls-1" cx="10" cy="4" r="1"/><rect class="cls-1" x="4" y="17" width="16" height="1"/><rect class="cls-1" x="4" y="19" width="16" height="1"/><rect class="cls-1" x="4" y="15" width="16" height="1"/><path class="cls-1" d="M4,9v5H20V9Zm15,4H5V10H19Z"/></svg>