<svg id="Star_Trek_alt" data-name="Star Trek alt" xmlns="http://www.w3.org/2000/svg" viewBox="0 0 512 512"><defs><style>.cls-1{fill:#eee;}</style></defs><title>star-trek</title><path class="cls-1" d="M428.49,256c0-71.75-44.05-133.39-106.51-159.34A504.59,504.59,0,0,0,261.39,12a495.44,495.44,0,0,0-57.22,79.47C134.3,113.53,83.51,178.94,83.51,256a171.53,171.53,0,0,0,32.31,100.34C103,439.67,104.85,500,104.85,500s34.72-43.67,78-87.85A172.12,172.12,0,0,0,377.78,378c20.9,41.41,28.63,89.74,28.63,89.74s3.76-48.94-4.76-119.53A171.37,171.37,0,0,0,428.49,256Zm-178-53.07L260.84,102l1.37-13.27,1.38,13.39L274,202.93l33.58,8.39-30.22,15.12,8.4,40.3-23.51-33.58L238.7,266.73l8.4-40.3-30.23-15.12ZM120.4,329.09a154,154,0,0,1,69.87-212.41C153.38,187.83,132.35,263.74,120.4,329.09Zm135.6,81a153.28,153.28,0,0,1-59.24-11.86c45.82-44.84,97.72-85.43,127.6-75.47,18,6,32.47,20.71,43.93,38.57A153.65,153.65,0,0,1,256,410.08Zm81.22-284.93a153.84,153.84,0,0,1,60.08,192.2C388,259.59,370.29,191.54,337.22,125.15Z"/></svg>