<svg id="Layer_1" data-name="Layer 1" xmlns="http://www.w3.org/2000/svg" viewBox="0 0 512 512"><defs><style>.cls-1{fill:#eee;}</style></defs><title>Artboard 1</title><path class="cls-1" d="M482,26.59H30A7.31,7.31,0,0,0,22.7,33.9V478.1A7.31,7.31,0,0,0,30,485.41H482a7.31,7.31,0,0,0,7.31-7.31V33.9A7.31,7.31,0,0,0,482,26.59Zm-7.31,444.2H37.31V134.72H474.69V470.8Zm0-350.69H37.31V41.2H474.69v78.9Z"/><path class="cls-1" d="M411.86,57.76H326.14a7.31,7.31,0,0,0,0,14.61h85.72a7.31,7.31,0,0,0,0-14.61Z"/><path class="cls-1" d="M450.83,57.76H435.24a7.31,7.31,0,0,0,0,14.61h15.59a7.31,7.31,0,0,0,0-14.61Z"/><path class="cls-1" d="M263.79,50a30.59,30.59,0,0,0-10.23,1.75h0a30.69,30.69,0,0,0,0,57.85h0A30.69,30.69,0,1,0,263.79,50Zm0,46.76a16,16,0,0,1-5.36-.92h0a16.08,16.08,0,0,1,0-30.31h0a16.07,16.07,0,1,1,5.36,31.23Z"/><path class="cls-1" d="M178.07,50a30.69,30.69,0,1,0,30.69,30.69A30.72,30.72,0,0,0,178.07,50Zm0,46.76a16.07,16.07,0,1,1,16.07-16.07A16.09,16.09,0,0,1,178.07,96.73Z"/><path class="cls-1" d="M92.35,50A30.69,30.69,0,1,0,123,80.66,30.72,30.72,0,0,0,92.35,50Zm0,46.76a16.07,16.07,0,1,1,16.07-16.07A16.09,16.09,0,0,1,92.35,96.73Z"/><path class="cls-1" d="M460.56,218.21l-77.15-77.15a7.31,7.31,0,0,0-10.33,0L323.9,190.25H88.45a7.31,7.31,0,0,0,0,14.61H309.28l-58.45,58.45-51.63,51.63H88.45a7.31,7.31,0,1,0,0,14.61h96.14l-15.75,15.75,0,0h0l-.06.07c-.14.15-.29.3-.42.46l-.14.18c-.1.13-.2.26-.29.39l-.17.27c-.07.11-.14.22-.2.34s-.12.24-.17.36-.09.19-.13.29-.11.3-.16.45l-.08.22c-.06.19-.11.39-.15.59l0,.11v0l-18.1,90.51H88.45a7.31,7.31,0,1,0,0,14.61h72a7.27,7.27,0,0,0,5-2l31.93-6.39h0l55.06-11h0l.13,0,.57-.14.24-.08.44-.16.3-.14.34-.17.34-.2.27-.16.39-.29.18-.14c.16-.13.31-.27.46-.41l.07-.07h0l0,0,4.84-4.84L361.69,327.41l43.76-43.76,55.1-55.1A7.31,7.31,0,0,0,460.56,218.21ZM207.4,327.41h0l53.77-53.77,62-62,14.46,14.47L198.77,365l-14.47-14.47Zm140.54-90.94,17.22,17.22-63.39,63.39L250.83,368l-24.51,24.51-17.22-17.22ZM164,437.62l3.44-17.2,13.76,13.76Zm34.42-6.88L170.89,403.2l7.58-37.88,15.14,15.14L221.16,408l15.14,15.14ZM351.36,317.07,251.12,417.31l-14.47-14.46,24.51-24.51,50.93-50.93L375.49,264,390,278.48Zm48.92-48.92-19.63-19.63L353.1,221l-19.63-19.63,44.77-44.77,66.81,66.81Z"/><path class="cls-1" d="M382,176.8a7.31,7.31,0,0,0-10.33,0l-17.53,17.53a7.31,7.31,0,1,0,10.33,10.33L382,187.13A7.3,7.3,0,0,0,382,176.8Z"/></svg>