<svg id="puppy" xmlns="http://www.w3.org/2000/svg" viewBox="0 0 957.75 957.75"><defs><style>.cls-1{fill:#eee;}</style></defs><title>puppy</title><path id="Left_Ear" data-name="Left Ear" class="cls-1" d="M166.18,414.82c8-108.2,15.6-202.6,102-213.2a248.52,248.52,0,0,1,37.8-48.4,242.26,242.26,0,0,1,49.4-38.1c-18.5-20.9-44.9-42.6-79.1-51-74.3-18.4-202.6-5.4-264.7,245S156.38,547.82,166.18,414.82Z"/><path id="Right_Ear" data-name="Right Ear" class="cls-1" d="M681.47,64c-34.5,8.5-61,30.4-79.4,51.4a242.42,242.42,0,0,1,48.7,37.7,245.5,245.5,0,0,1,37.5,48.3c87.7,9.8,95.3,104.6,103.3,213.3,9.8,133,216.6,144.7,154.6-105.8C884.18,58.62,755.78,45.62,681.47,64Z"/><path id="Face" class="cls-1" d="M646.77,202.52a210,210,0,0,0-66-58.7,209.26,209.26,0,0,0-204.2-.8,210,210,0,0,0-67.2,59.2A207.59,207.59,0,0,0,269,325.52v124.3c-53,47.7-84.7,113.4-84.7,186,0,140.6,122.5,255.5,276.7,263.6V630.22c-36.6-5.1-64-25.9-64-50.8,0-28.7,36.5-52,81.5-52s81.5,23.3,81.5,52c0,24.9-27.4,45.7-64,50.8v269.2c154.2-8.1,276.4-123,276.4-263.6,0-72.5-33.4-138.2-85.4-186V325.52A207.21,207.21,0,0,0,646.77,202.52Zm-349.7,566a20.7,20.7,0,1,1,20.7-20.7A20.74,20.74,0,0,1,297.08,768.52Zm3.4-74a20.7,20.7,0,1,1,20.7-20.7A20.74,20.74,0,0,1,300.48,694.52ZM321,397.42a62,62,0,1,1,62,62A61.89,61.89,0,0,1,321,397.42Zm41.67,338.3a20.7,20.7,0,1,1,20.7-20.7A20.74,20.74,0,0,1,362.67,735.72Zm232.4,0a20.7,20.7,0,1,1,20.7-20.7A20.74,20.74,0,0,1,595.07,735.72ZM574,460.39a63,63,0,1,1,63-63A62.89,62.89,0,0,1,574,460.39Zm83.3,192.83a20.7,20.7,0,1,1-20.7,20.7A20.74,20.74,0,0,1,657.27,653.22Zm3.4,115.3a20.7,20.7,0,1,1,20.7-20.7A20.74,20.74,0,0,1,660.67,768.52Z"/></svg>