<svg id="Layer_1" data-name="Layer 1" xmlns="http://www.w3.org/2000/svg" viewBox="0 0 50 50"><defs><style>.cls-1{fill:none;stroke:#eee;stroke-linecap:round;stroke-linejoin:round;stroke-width:2px;}.cls-2{fill:#eee;}</style></defs><title>sailboat</title><path class="cls-1" d="M49,44.65a5.46,5.46,0,0,1-1.85.3,9.5,9.5,0,0,1-5.54-1.71,9.82,9.82,0,0,1-11.08,0,9.82,9.82,0,0,1-11.08,0,9.5,9.5,0,0,1-5.54,1.71,9.5,9.5,0,0,1-5.54-1.71,9.5,9.5,0,0,1-5.54,1.71A12,12,0,0,1,1,44.8"/><path class="cls-2" d="M32,44a31.53,31.53,0,0,0,13-8c1-1.06,1.78-2,0-2H7a2.1,2.1,0,0,0-2,2c0,3.79,7.47,6.83,12,8.23"/><path class="cls-2" d="M42,34,26,30s5-7,2-23C44,21,42,34,42,34Z"/><path class="cls-2" d="M25,33.86,7,28S19.4,20.8,25,4Z"/></svg>