<?xml version="1.0" encoding="utf-8"?>
<!-- Generator: Adobe Illustrator 21.0.1, SVG Export Plug-In . SVG Version: 6.00 Build 0)  -->
<svg version="1.1" id="Layer_1" xmlns="http://www.w3.org/2000/svg" xmlns:xlink="http://www.w3.org/1999/xlink" x="0px" y="0px"
	 viewBox="0 0 512 512" style="enable-background:new 0 0 512 512;" xml:space="preserve">
<style type="text/css">
	.st0{fill:#EEEEEE;}
</style>
<g>
	<g>
		<path class="st0" d="M391.5,70.5V10.7c0-5.9-4.8-10.7-10.7-10.7h-50.6c-5.9,0-10.7,4.8-10.7,10.7V53h-22v-6.2
			c0-17.6-14.4-32-32-32h-19.2c-17.6,0-32,14.4-32,32V53h-22V10.7c0-5.9-4.8-10.7-10.7-10.7h-50.6c-5.9,0-10.7,4.8-10.7,10.7v59.9
			C98,87.1,83.4,113.7,83.4,143.6V480c0,17.6,14.4,32,32,32h281.2c17.6,0,32-14.4,32-32V143.6C428.6,113.7,414,87.1,391.5,70.5z
			 M340.9,21.3h29.3v37.6c-9.1-3.5-19-5.5-29.3-5.9V21.3z M235.7,46.7L235.7,46.7c0-5.9,4.8-10.7,10.7-10.7h19.2
			c5.9,0,10.7,4.8,10.7,10.7V53h-40.5V46.7z M141.8,21.3h29.3V53c-10.3,0.3-20.1,2.4-29.3,5.9V21.3z M407.3,480
			c0,5.9-4.8,10.7-10.7,10.7H115.4c-5.9,0-10.7-4.8-10.7-10.7V143.6c0-38.2,31.1-69.3,69.3-69.3h51h61.9h51
			c38.2,0,69.3,31.1,69.3,69.3L407.3,480L407.3,480z"/>
	</g>
</g>
<g>
	<g>
		<path class="st0" d="M359.2,283.5H152.8c-14.7,0-26.7,12-26.7,26.7v132.5c0,14.7,12,26.7,26.7,26.7h206.4
			c14.7,0,26.7-12,26.7-26.7V310.1C385.9,295.4,373.9,283.5,359.2,283.5z M364.5,442.6c0,2.9-2.4,5.3-5.3,5.3H152.8
			c-2.9,0-5.3-2.4-5.3-5.3v-94.8h177.4v18c0,5.9,4.8,10.7,10.7,10.7c5.9,0,10.7-4.8,10.7-10.7v-18h18.4L364.5,442.6L364.5,442.6z
			 M364.5,326.5H147.5v-16.4c0-2.9,2.4-5.3,5.3-5.3h206.4c2.9,0,5.3,2.4,5.3,5.3V326.5z"/>
	</g>
</g>
<g>
	<path class="st0" d="M253.9,170h-15.2l-15.6-30.2h-0.3c0.4,4.7,0.6,8.4,0.6,10.9V170h-10.3v-42.8h15.1l15.6,29.8h0.2
		c-0.3-4.3-0.4-7.8-0.4-10.4v-19.4h10.3V170z"/>
	<path class="st0" d="M280.4,144.9h18.5V168c-5,1.7-10.5,2.6-16.6,2.6c-6.6,0-11.7-1.9-15.3-5.7c-3.6-3.8-5.4-9.3-5.4-16.4
		c0-6.9,2-12.3,5.9-16.1c3.9-3.8,9.5-5.8,16.6-5.8c2.7,0,5.2,0.3,7.6,0.8c2.4,0.5,4.5,1.2,6.3,1.9l-3.7,9.1
		c-3.1-1.5-6.5-2.3-10.2-2.3c-3.4,0-6,1.1-7.8,3.3s-2.8,5.3-2.8,9.4c0,4,0.8,7.1,2.5,9.2c1.7,2.1,4.1,3.1,7.2,3.1
		c1.7,0,3.3-0.2,4.7-0.5v-6.7h-7.6V144.9z"/>
</g>
</svg>
