<?xml version="1.0" encoding="utf-8"?>
<!-- Generator: Adobe Illustrator 21.0.2, SVG Export Plug-In . SVG Version: 6.00 Build 0)  -->
<svg version="1.1" id="Capa_1" xmlns="http://www.w3.org/2000/svg" xmlns:xlink="http://www.w3.org/1999/xlink" x="0px" y="0px"
	 viewBox="0 0 800 533" style="enable-background:new 0 0 800 533;" xml:space="preserve">
<style type="text/css">
	.st0{fill:#F75B5A;}
	.st1{enable-background:new    ;}
	.st2{fill:#FFA333;}
</style>
<g>
	<g>
		<g>
			<path class="st0" d="M275,387.3c2,1.8,4.5,2.7,7.1,2.7c2.5,0,5-0.8,6.9-2.7l40-36.3c1.9-1.7,3-4.1,3-6.6s-1.1-4.8-3-6.6l-40-36.3
				c-3.9-3.6-10.2-3.5-14.1,0.1c-3.8,3.7-3.8,9.5,0.1,13.1l22.6,20.6h-25.2c-15.3,0-29.7-6.2-39.6-17.1l-87.1-110.4
				c-13.3-17.5-35.1-28-58.2-28H59c-5.5,0-9.8,4.2-9.8,9.2c0,5.1,4.5,9.1,9.8,9.1h28.6c16.6,0,32.5,7.6,42.2,20.4l87.5,110.7
				c0.1,0.2,0.3,0.2,0.4,0.4c13.6,15.3,33.7,24.1,55,24.1h25.2l-22.6,20.6C271.2,377.9,271.1,383.6,275,387.3z"/>
			<path class="st0" d="M329,182.2l-40.3-36.7c-3.9-3.6-10.2-3.5-14.1,0.1c-3.8,3.7-3.8,9.5,0.1,13.1l22.9,20.9h-25.2
				c-21.3,0-41.4,8.7-55,24c-0.1,0.1-0.3,0.2-0.4,0.4l-16.4,20.8c-3.2,4.1-2.3,9.9,2.1,12.9c1.8,1.2,3.8,1.7,5.8,1.7
				c3,0,6.1-1.2,8-3.7l16.2-20.5c9.8-11,24.2-17.1,39.6-17.1h25.2L274.8,219c-3.9,3.6-4,9.4-0.1,13.1c2,1.8,4.5,2.7,7.1,2.7
				c2.5,0,5-0.8,6.9-2.7l40.3-36.7c1.9-1.7,3-4.1,3-6.6C332,186.3,330.9,184,329,182.2z"/>
			<path class="st0" d="M145.8,325.6l14.4-18.1c3.2-4.1,2.3-9.9-2.1-12.9c-4.4-3-10.7-2.2-13.9,2l-14.4,18.3
				c-0.1,0.1-0.1,0.2-0.2,0.2c-9.7,12.6-25.3,20-42,20H58.9c-5.5,0-9.8,4.2-9.8,9.2s4.5,9.1,9.8,9.1h28.6
				C110.7,353.7,132.5,343.2,145.8,325.6z"/>
		</g>
	</g>
</g>
<g class="st1">
	<path class="st2" d="M332.2,249.9h9.1c1,0,1.7,0.2,2.3,0.6s1.1,0.9,1.3,1.6l6.4,22.8c0.2,0.7,0.4,1.5,0.6,2.3
		c0.2,0.8,0.4,1.7,0.4,2.7c0.2-0.9,0.4-1.8,0.7-2.7c0.3-0.8,0.5-1.6,0.7-2.3l7.6-22.8c0.2-0.6,0.6-1.1,1.3-1.5
		c0.6-0.4,1.4-0.7,2.3-0.7h3.2c1,0,1.7,0.2,2.3,0.6s1.1,0.9,1.3,1.6l7.5,22.8c0.3,0.7,0.4,1.4,0.7,2.2c0.3,0.7,0.4,1.7,0.7,2.5
		c0.2-0.9,0.4-1.7,0.5-2.5c0.2-0.8,0.4-1.6,0.5-2.2l6.4-22.8c0.2-0.6,0.5-1.1,1.3-1.5c0.6-0.4,1.4-0.7,2.3-0.7h8.6L386,293.5h-9.8
		l-8.9-27c-0.2-0.4-0.3-0.9-0.4-1.4c-0.2-0.5-0.4-1-0.4-1.6c-0.2,0.6-0.3,1.1-0.4,1.6c-0.2,0.5-0.4,1-0.4,1.4l-9,27h-9.8
		L332.2,249.9z"/>
	<path class="st2" d="M415.8,278.9v14.6h-10.9v-43.7h16.6c3.3,0,6.2,0.3,8.5,1.1c2.3,0.7,4.3,1.7,5.9,3c1.5,1.2,2.7,2.7,3.4,4.5
		c0.7,1.7,1.1,3.6,1.1,5.7c0,2.2-0.4,4.2-1.2,6c-0.7,1.8-1.9,3.4-3.5,4.7c-1.5,1.3-3.5,2.3-5.9,3.1c-2.4,0.7-5.2,1.1-8.4,1.1
		L415.8,278.9L415.8,278.9z M415.8,271.2h5.6c2.9,0,4.8-0.7,6.1-1.9c1.3-1.2,1.9-3,1.9-5.2c0-1-0.2-1.9-0.4-2.7
		c-0.4-0.8-0.8-1.5-1.4-2.1s-1.5-1.1-2.5-1.3c-1-0.3-2.1-0.5-3.6-0.5h-5.6V271.2z"/>
	<path class="st2" d="M483.7,275.9c0.4,0.8,0.8,1.7,1.2,2.5c0.4-0.9,0.7-1.7,1.2-2.6c0.4-0.8,0.8-1.7,1.3-2.4l12.1-22
		c0.2-0.4,0.4-0.7,0.6-0.9c0.2-0.2,0.4-0.3,0.7-0.5c0.3-0.1,0.6-0.2,1-0.2s0.8,0,1.3,0h8.3v43.6h-9.6v-25.1c0-1.2,0.1-2.5,0.2-4
		l-12.4,22.5c-0.4,0.7-0.9,1.2-1.5,1.6s-1.4,0.5-2.2,0.5H484c-0.8,0-1.6-0.2-2.2-0.5c-0.6-0.3-1.2-0.9-1.5-1.6l-12.5-22.5
		c0.1,0.7,0.2,1.4,0.2,2.1s0.1,1.3,0.1,1.9v25.1h-9.6v-43.6h8.3c0.4,0,0.9,0,1.3,0s0.7,0.1,1,0.2c0.3,0.1,0.5,0.2,0.7,0.5
		c0.2,0.2,0.4,0.5,0.6,0.9l12.1,22.1C482.9,274.3,483.2,275.1,483.7,275.9z"/>
	<path class="st2" d="M533.8,261.9c2.5,0,4.8,0.3,6.9,1.1c2.1,0.7,3.8,1.8,5.4,3.2c1.5,1.3,2.7,3.1,3.5,5c0.8,2,1.3,4.2,1.3,6.7
		c0,2.5-0.4,4.7-1.3,6.7c-0.8,2-2,3.7-3.5,5.1c-1.5,1.4-3.3,2.5-5.4,3.2c-2.1,0.7-4.4,1.2-6.9,1.2c-2.6,0-4.9-0.4-7-1.2
		c-2.1-0.7-3.9-1.8-5.4-3.2c-1.5-1.4-2.7-3.1-3.5-5.1c-0.8-2-1.3-4.2-1.3-6.7c0-2.5,0.4-4.7,1.3-6.7c0.8-2,2-3.7,3.5-5
		c1.5-1.4,3.3-2.4,5.4-3.2C528.9,262.3,531.2,261.9,533.8,261.9z M533.8,287c2.3,0,4-0.7,5.1-2.2s1.6-3.8,1.6-6.9
		c0-3.1-0.5-5.3-1.6-6.8s-2.8-2.2-5.1-2.2c-2.3,0-4.1,0.7-5.2,2.2c-1.1,1.5-1.6,3.7-1.6,6.8c0,3.1,0.5,5.4,1.6,6.9
		C529.7,286.3,531.4,287,533.8,287z"/>
	<path class="st2" d="M556.3,293.4v-31h5.9c0.5,0,0.9,0,1.3,0.1c0.4,0.1,0.6,0.2,0.8,0.4c0.3,0.2,0.4,0.4,0.5,0.7
		c0.1,0.2,0.2,0.6,0.3,1l0.5,2.9c1.3-1.7,2.6-3.2,4.1-4.2c1.5-1,3.2-1.5,5-1.5c1.5,0,2.8,0.3,3.7,1l-1.3,6.8
		c-0.1,0.4-0.3,0.7-0.5,0.9c-0.3,0.2-0.6,0.2-1.1,0.2c-0.4,0-0.8-0.1-1.3-0.2c-0.5-0.1-1.1-0.2-1.9-0.2c-2.6,0-4.7,1.3-6.2,3.9v19
		H556.3z"/>
	<path class="st2" d="M583,303.3v-40.9h6.2c0.6,0,1.2,0.2,1.5,0.4c0.4,0.2,0.7,0.7,0.9,1.2l0.7,2.2c0.6-0.7,1.3-1.2,2.1-1.8
		c0.7-0.5,1.5-1,2.4-1.4c0.8-0.4,1.8-0.7,2.8-0.9c1-0.2,2.1-0.3,3.2-0.3c1.7,0,3.3,0.3,4.8,1.1c1.5,0.7,2.8,1.7,3.8,3.1
		c1.1,1.3,1.9,3,2.5,5c0.6,2,0.9,4.2,0.9,6.7c0,2.3-0.4,4.5-1.1,6.5c-0.7,2-1.7,3.7-3,5.2c-1.3,1.5-2.8,2.6-4.5,3.4
		c-1.8,0.8-3.7,1.2-5.8,1.2c-1.7,0-3.2-0.2-4.4-0.7c-1.2-0.5-2.2-1.1-3.2-1.8v11.9L583,303.3L583,303.3z M599.2,268.9
		c-0.7,0-1.4,0.1-2,0.2c-0.6,0.2-1.2,0.3-1.6,0.6c-0.5,0.2-1,0.6-1.4,0.9c-0.4,0.3-0.9,0.8-1.3,1.2V285c0.7,0.7,1.6,1.3,2.4,1.7
		c0.9,0.3,1.8,0.5,2.8,0.5c0.9,0,1.8-0.2,2.5-0.5c0.8-0.3,1.4-0.9,2-1.7c0.5-0.7,1-1.7,1.3-2.9c0.4-1.2,0.4-2.7,0.4-4.4
		c0-1.7-0.1-3-0.4-4.2c-0.3-1.1-0.6-2-1.1-2.7c-0.4-0.7-1-1.2-1.7-1.5C600.8,269.1,600,268.9,599.2,268.9z"/>
	<path class="st2" d="M620.2,293.4v-44.8h10v16.5c1.2-1,2.5-1.7,3.9-2.3s3-0.9,5-0.9c1.8,0,3.4,0.3,4.8,0.9c1.4,0.6,2.6,1.4,3.6,2.5
		c1,1.1,1.7,2.3,2.1,3.7c0.5,1.4,0.7,3,0.7,4.7v19.7h-10v-19.7c0-1.5-0.4-2.7-1.2-3.6c-0.7-0.8-1.9-1.2-3.3-1.2
		c-1.1,0-2.1,0.2-3.1,0.7c-1,0.4-1.9,1-2.8,1.7v22.1H620.2L620.2,293.4z"/>
	<path class="st2" d="M671.8,261.9c2.2,0,4.2,0.3,6.1,1c1.9,0.7,3.4,1.6,4.7,2.7c1.3,1.2,2.3,2.7,3.1,4.5c0.8,1.7,1.1,3.7,1.1,6
		c0,0.7,0,1.2-0.1,1.7c-0.1,0.4-0.2,0.7-0.4,1.1c-0.2,0.2-0.4,0.4-0.7,0.5c-0.4,0.1-0.6,0.2-1.1,0.2h-19.2c0.4,2.6,1.2,4.5,2.5,5.7
		c1.3,1.2,3.1,1.7,5.3,1.7c1.2,0,2.1-0.2,3-0.4c0.8-0.2,1.6-0.6,2.2-0.8c0.6-0.2,1.3-0.6,1.8-0.8c0.5-0.2,1.2-0.4,1.7-0.4
		c0.8,0,1.4,0.2,1.8,0.8l2.9,3.3c-1.1,1.1-2.1,2-3.3,2.7c-1.2,0.7-2.4,1.2-3.7,1.6s-2.5,0.7-3.8,0.8c-1.3,0.2-2.4,0.2-3.6,0.2
		c-2.3,0-4.6-0.3-6.6-1.1c-2.1-0.7-3.8-1.7-5.4-3.2s-2.8-3.2-3.7-5.2c-0.9-2.1-1.3-4.5-1.3-7.2c0-2.1,0.4-4.1,1.2-5.9
		c0.8-1.8,1.9-3.5,3.3-4.9s3.1-2.5,5.2-3.3C667,262.3,669.3,261.9,671.8,261.9z M672,268.3c-1.9,0-3.4,0.5-4.5,1.5
		c-1.1,1-1.8,2.5-2.1,4.3h12.4c0-0.7-0.1-1.5-0.3-2.2c-0.2-0.7-0.5-1.3-1-1.8c-0.4-0.6-1.1-1-1.8-1.3
		C674.1,268.5,673.1,268.3,672,268.3z"/>
	<path class="st2" d="M698.7,277.4l-10.7-15h9.6c0.7,0,1.3,0.1,1.5,0.2c0.4,0.2,0.6,0.4,0.9,0.8l6,9.2c0.1-0.3,0.3-0.7,0.4-1.1
		c0.2-0.3,0.4-0.7,0.6-1.1l4.3-6.9c0.3-0.5,0.6-0.7,0.9-1c0.4-0.2,0.8-0.2,1.3-0.2h9.1L711.8,277l11.2,16.5h-9.6
		c-0.7,0-1.3-0.2-1.7-0.5c-0.4-0.3-0.8-0.7-1.1-1.2l-6-9.5c-0.1,0.3-0.3,0.7-0.4,1c-0.2,0.3-0.3,0.6-0.4,0.8l-4.9,7.7
		c-0.3,0.4-0.6,0.8-1.1,1.2c-0.4,0.3-1,0.5-1.6,0.5h-8.9L698.7,277.4z"/>
	<path class="st2" d="M739.3,293.9c-1.6,0-3-0.2-4.2-0.7c-1.3-0.4-2.2-1-3-1.8c-0.8-0.8-1.4-1.7-1.9-2.8c-0.4-1.1-0.6-2.3-0.6-3.7
		v-16.1h-2.9c-0.5,0-1-0.2-1.3-0.5c-0.4-0.3-0.5-0.7-0.5-1.3v-3.7l5.3-1l2-7.6c0.3-1,1-1.4,2.1-1.4h5.2v9.1h8.1v6.3h-8.1v15.4
		c0,0.7,0.2,1.3,0.5,1.7c0.4,0.5,0.9,0.7,1.6,0.7c0.4,0,0.7,0,0.9-0.1c0.2-0.1,0.4-0.2,0.6-0.2c0.2-0.1,0.4-0.2,0.5-0.2
		c0.2-0.1,0.4-0.1,0.5-0.1c0.3,0,0.5,0.1,0.7,0.2c0.2,0.2,0.4,0.3,0.5,0.6l3,4.4c-1.3,0.9-2.8,1.6-4.4,2
		C742.7,293.7,741,293.9,739.3,293.9z"/>
</g>
</svg>
