<?xml version="1.0" encoding="utf-8"?>
<!-- Generator: Adobe Illustrator 21.0.0, SVG Export Plug-In . SVG Version: 6.00 Build 0)  -->
<svg version="1.1" id="Capa_1" xmlns="http://www.w3.org/2000/svg" xmlns:xlink="http://www.w3.org/1999/xlink" x="0px" y="0px"
	 viewBox="0 0 300 300" style="enable-background:new 0 0 300 300;" xml:space="preserve">
<style type="text/css">
	.st0{enable-background:new    ;}
	.st1{fill:#FFA333;}
	.st2{fill:#F75B5A;}
</style>
<title>wp-morphext-square</title>
<g class="st0">
	<path class="st1" d="M15.6,257.5h6c0.6,0,1.1,0.1,1.6,0.4c0.4,0.3,0.7,0.7,0.8,1.1l4.2,16.1c0.1,0.5,0.3,1.1,0.4,1.7
		c0.1,0.6,0.2,1.2,0.3,1.9c0.1-0.7,0.3-1.3,0.5-1.9c0.2-0.6,0.3-1.1,0.5-1.7l5-16.1c0.1-0.4,0.4-0.8,0.8-1.1
		c0.4-0.3,0.9-0.5,1.5-0.5h2.1c0.6,0,1.1,0.1,1.5,0.4c0.4,0.3,0.7,0.7,0.8,1.1l4.9,16.1c0.2,0.5,0.3,1,0.5,1.6
		c0.2,0.6,0.3,1.2,0.4,1.8c0.1-0.6,0.2-1.2,0.3-1.8c0.1-0.6,0.2-1.1,0.4-1.6l4.2-16.1c0.1-0.4,0.4-0.8,0.8-1.1
		c0.4-0.3,0.9-0.5,1.5-0.5h5.6l-9.5,30.8h-6.5l-5.8-19.1c-0.1-0.3-0.2-0.6-0.3-1s-0.2-0.7-0.3-1.1c-0.1,0.4-0.2,0.8-0.3,1.1
		c-0.1,0.4-0.2,0.7-0.3,1l-5.9,19.1h-6.5L15.6,257.5z"/>
	<path class="st1" d="M70.4,278v10.3h-7.1v-30.8h10.9c2.2,0,4,0.3,5.6,0.8s2.8,1.2,3.8,2.1c1,0.9,1.8,2,2.2,3.2
		c0.5,1.2,0.7,2.6,0.7,4c0,1.5-0.2,2.9-0.7,4.2c-0.5,1.3-1.2,2.4-2.3,3.3c-1,0.9-2.3,1.6-3.9,2.1s-3.4,0.8-5.5,0.8H70.4z
		 M70.4,272.6h3.7c1.9,0,3.2-0.4,4-1.3c0.8-0.9,1.2-2.1,1.2-3.7c0-0.7-0.1-1.3-0.3-1.9c-0.2-0.6-0.5-1.1-1-1.5c-0.4-0.4-1-0.7-1.6-1
		s-1.4-0.3-2.3-0.3h-3.7V272.6z"/>
	<path class="st1" d="M114.9,275.9c0.3,0.6,0.5,1.2,0.8,1.8c0.2-0.6,0.5-1.2,0.8-1.8c0.3-0.6,0.5-1.2,0.8-1.7l7.9-15.6
		c0.1-0.3,0.3-0.5,0.4-0.6c0.1-0.1,0.3-0.3,0.5-0.3c0.2-0.1,0.4-0.1,0.6-0.1c0.2,0,0.5,0,0.8,0h5.5v30.8h-6.3v-17.7
		c0-0.9,0-1.8,0.1-2.8l-8.2,15.8c-0.3,0.5-0.6,0.9-1,1.1s-0.9,0.4-1.5,0.4h-1c-0.5,0-1-0.1-1.5-0.4c-0.4-0.3-0.8-0.6-1-1.1
		l-8.2-15.9c0.1,0.5,0.1,1,0.1,1.5s0,0.9,0,1.3v17.7h-6.3v-30.8h5.5c0.3,0,0.6,0,0.8,0s0.4,0,0.6,0.1c0.2,0.1,0.3,0.2,0.5,0.3
		c0.1,0.1,0.3,0.4,0.4,0.6l7.9,15.6C114.4,274.8,114.6,275.3,114.9,275.9z"/>
	<path class="st1" d="M147.8,266.1c1.7,0,3.2,0.3,4.5,0.8c1.4,0.5,2.5,1.3,3.5,2.2s1.7,2.2,2.3,3.5s0.8,2.9,0.8,4.7
		c0,1.7-0.3,3.3-0.8,4.7s-1.3,2.6-2.3,3.6c-1,1-2.2,1.7-3.5,2.3c-1.4,0.5-2.9,0.8-4.5,0.8c-1.7,0-3.2-0.3-4.6-0.8
		c-1.4-0.5-2.6-1.3-3.6-2.3c-1-1-1.8-2.2-2.3-3.6c-0.5-1.4-0.8-3-0.8-4.7c0-1.7,0.3-3.3,0.8-4.7c0.5-1.4,1.3-2.6,2.3-3.5
		c1-1,2.2-1.7,3.6-2.2C144.6,266.3,146.1,266.1,147.8,266.1z M147.8,283.8c1.5,0,2.6-0.5,3.3-1.6c0.7-1.1,1.1-2.7,1.1-4.9
		c0-2.2-0.4-3.8-1.1-4.8c-0.7-1.1-1.8-1.6-3.3-1.6c-1.6,0-2.7,0.5-3.4,1.6c-0.7,1.1-1.1,2.7-1.1,4.8c0,2.2,0.4,3.8,1.1,4.9
		C145.1,283.3,146.3,283.8,147.8,283.8z"/>
	<path class="st1" d="M162.6,288.3v-21.9h3.9c0.3,0,0.6,0,0.8,0.1c0.2,0.1,0.4,0.1,0.5,0.3c0.1,0.1,0.3,0.3,0.3,0.5
		c0.1,0.2,0.1,0.4,0.2,0.7l0.4,2.1c0.8-1.2,1.7-2.2,2.7-2.9c1-0.7,2.1-1.1,3.3-1.1c1,0,1.8,0.2,2.4,0.7l-0.8,4.8
		c-0.1,0.3-0.2,0.5-0.3,0.6c-0.2,0.1-0.4,0.2-0.7,0.2c-0.2,0-0.5,0-0.8-0.1c-0.3-0.1-0.7-0.1-1.2-0.1c-1.7,0-3.1,0.9-4.1,2.7v13.4
		H162.6z"/>
	<path class="st1" d="M180,295.3v-28.9h4.1c0.4,0,0.8,0.1,1,0.3c0.3,0.2,0.5,0.5,0.6,0.8l0.5,1.6c0.4-0.5,0.9-0.9,1.4-1.3
		c0.5-0.4,1-0.7,1.6-1c0.6-0.3,1.2-0.5,1.8-0.6s1.3-0.2,2.1-0.2c1.1,0,2.2,0.3,3.2,0.8c1,0.5,1.8,1.2,2.5,2.2c0.7,1,1.3,2.1,1.7,3.5
		c0.4,1.4,0.6,3,0.6,4.7c0,1.6-0.2,3.2-0.7,4.6c-0.5,1.4-1.1,2.6-1.9,3.6c-0.8,1-1.8,1.8-3,2.4c-1.1,0.6-2.4,0.9-3.8,0.9
		c-1.1,0-2.1-0.2-2.9-0.5c-0.8-0.3-1.5-0.8-2.1-1.3v8.4H180z M190.7,271c-0.5,0-0.9,0-1.3,0.1s-0.7,0.2-1.1,0.4
		c-0.3,0.2-0.6,0.4-0.9,0.6s-0.6,0.6-0.8,0.9v9.3c0.5,0.5,1,0.9,1.6,1.2c0.6,0.2,1.2,0.3,1.8,0.3c0.6,0,1.2-0.1,1.7-0.4
		c0.5-0.2,0.9-0.6,1.3-1.2c0.4-0.5,0.7-1.2,0.9-2.1c0.2-0.8,0.3-1.9,0.3-3.1c0-1.2-0.1-2.1-0.3-2.9c-0.2-0.8-0.4-1.4-0.7-1.9
		c-0.3-0.5-0.7-0.8-1.1-1C191.7,271.1,191.2,271,190.7,271z"/>
	<path class="st1" d="M204.5,288.3v-31.6h6.6v11.6c0.8-0.7,1.6-1.2,2.6-1.6c0.9-0.4,2-0.6,3.3-0.6c1.2,0,2.3,0.2,3.2,0.6
		s1.7,1,2.3,1.7c0.6,0.7,1.1,1.6,1.4,2.6s0.5,2.1,0.5,3.3v13.9h-6.6v-13.9c0-1.1-0.2-1.9-0.7-2.5c-0.5-0.6-1.2-0.9-2.2-0.9
		c-0.7,0-1.4,0.2-2,0.5c-0.6,0.3-1.2,0.7-1.8,1.2v15.6H204.5z"/>
	<path class="st1" d="M238.4,266.1c1.5,0,2.8,0.2,4,0.7s2.2,1.1,3.1,2c0.9,0.9,1.5,1.9,2,3.2c0.5,1.2,0.7,2.7,0.7,4.2
		c0,0.5,0,0.9-0.1,1.2c0,0.3-0.1,0.6-0.2,0.7c-0.1,0.2-0.3,0.3-0.5,0.4s-0.4,0.1-0.7,0.1h-12.6c0.2,1.8,0.8,3.2,1.7,4
		c0.9,0.8,2.1,1.2,3.5,1.2c0.8,0,1.4-0.1,2-0.3c0.5-0.2,1-0.4,1.5-0.6s0.8-0.4,1.2-0.6c0.4-0.2,0.7-0.3,1.1-0.3
		c0.5,0,0.9,0.2,1.2,0.6l1.9,2.3c-0.7,0.8-1.4,1.4-2.2,1.9c-0.8,0.5-1.6,0.9-2.4,1.1c-0.8,0.3-1.6,0.5-2.5,0.6s-1.6,0.2-2.4,0.2
		c-1.5,0-3-0.2-4.3-0.8s-2.5-1.2-3.5-2.2s-1.8-2.2-2.4-3.7c-0.6-1.5-0.9-3.2-0.9-5.1c0-1.5,0.2-2.9,0.8-4.2s1.2-2.5,2.2-3.4
		s2.1-1.8,3.4-2.3C235.2,266.3,236.7,266.1,238.4,266.1z M238.5,270.6c-1.3,0-2.2,0.4-2.9,1.1c-0.7,0.7-1.2,1.7-1.4,3.1h8.2
		c0-0.5-0.1-1-0.2-1.5s-0.4-0.9-0.7-1.3s-0.7-0.7-1.2-0.9S239.2,270.6,238.5,270.6z"/>
	<path class="st1" d="M256,277l-7.1-10.6h6.3c0.5,0,0.8,0.1,1,0.2c0.2,0.1,0.4,0.3,0.6,0.6l3.9,6.5c0.1-0.3,0.2-0.5,0.3-0.7
		c0.1-0.2,0.3-0.5,0.4-0.8l2.8-4.9c0.2-0.3,0.4-0.6,0.6-0.7c0.2-0.1,0.5-0.2,0.8-0.2h6l-7.1,10.3l7.4,11.6h-6.3
		c-0.5,0-0.8-0.1-1.1-0.3c-0.3-0.2-0.5-0.5-0.7-0.8l-3.9-6.7c-0.1,0.2-0.2,0.5-0.3,0.7c-0.1,0.2-0.2,0.4-0.3,0.6l-3.2,5.5
		c-0.2,0.3-0.4,0.6-0.7,0.8s-0.6,0.3-1.1,0.3h-5.8L256,277z"/>
	<path class="st1" d="M282.6,288.7c-1,0-2-0.2-2.8-0.5c-0.8-0.3-1.5-0.7-2-1.3c-0.5-0.6-1-1.2-1.2-2c-0.3-0.8-0.4-1.7-0.4-2.6v-11.3
		h-1.9c-0.3,0-0.6-0.1-0.9-0.3c-0.2-0.2-0.4-0.5-0.4-1v-2.6l3.5-0.7l1.3-5.3c0.2-0.7,0.6-1,1.4-1h3.4v6.4h5.3v4.5h-5.3v10.9
		c0,0.5,0.1,0.9,0.4,1.3c0.2,0.3,0.6,0.5,1.1,0.5c0.2,0,0.4,0,0.6-0.1c0.2,0,0.3-0.1,0.4-0.2s0.2-0.1,0.3-0.2c0.1,0,0.2-0.1,0.4-0.1
		c0.2,0,0.4,0,0.5,0.1c0.1,0.1,0.2,0.2,0.4,0.4l2,3.1c-0.8,0.6-1.8,1.1-2.9,1.4C284.9,288.5,283.8,288.7,282.6,288.7z"/>
</g>
<path class="st2" d="M222.2,241.2c1.6,1.6,3.8,2.5,6.1,2.5c2.2,0,4.4-0.9,5.9-2.4l34.2-33.5c1.6-1.6,2.5-3.8,2.5-6.1
	c0-2.3-0.9-4.5-2.5-6.1l-34.2-33.5c-3.3-3.3-8.7-3.4-12-0.1s-3.4,8.7-0.1,12c0.1,0.1,0.1,0.1,0.2,0.2l19.4,19h-21.5
	c-13.1,0-25.5-5.8-33.8-15.8L111.8,75.9C100.4,59.7,81.8,50,62,50H37.5c-4.7,0-8.5,3.8-8.5,8.5s3.8,8.5,8.5,8.5H62
	c14.4,0,27.8,7,36.1,18.8l74.9,101.9c0.1,0.1,0.2,0.2,0.3,0.4c11.6,14,28.8,22.2,47,22.2h21.5l-19.4,19c-3.3,3.2-3.4,8.5-0.2,11.8
	C222.2,241.1,222.2,241.1,222.2,241.2z"/>
<path class="st2" d="M268.4,52.5L234,18.7c-3.3-3.3-8.7-3.4-12-0.1c-3.3,3.3-3.4,8.7-0.1,12c0.1,0.1,0.1,0.1,0.2,0.2L241.7,50h-21.5
	c-18.2,0-35.4,8.1-47,22.1c-0.1,0.1-0.2,0.3-0.3,0.4l-14,19.1c-2.8,3.8-2,9.1,1.8,11.8c0,0,0,0,0,0c1.5,1.1,3.2,1.6,5,1.6
	c2.7,0,5.2-1.3,6.8-3.5l13.9-18.9c8.3-10,20.7-15.8,33.8-15.8h21.5l-19.6,19.2c-3.3,3.3-3.3,8.7,0.1,12c3.3,3.2,8.5,3.3,11.8,0.1
	l34.4-33.7C271.8,61.3,271.8,55.8,268.4,52.5C268.4,52.5,268.4,52.5,268.4,52.5L268.4,52.5z"/>
<path class="st2" d="M111.7,184.4l12.3-16.7c2.9-3.7,2.3-9-1.3-11.9s-9-2.3-11.9,1.3c-0.1,0.2-0.3,0.4-0.4,0.6L98,174.5
	c0,0.1-0.1,0.1-0.2,0.2c-8.3,11.6-21.7,18.5-35.9,18.5H37.4c-4.7,0-8.5,3.8-8.5,8.5s3.8,8.5,8.5,8.5h24.5
	C81.7,210.2,100.3,200.6,111.7,184.4z"/>
</svg>
