<?xml version="1.0" encoding="utf-8"?>
<!-- Generator: Adobe Illustrator 21.0.0, SVG Export Plug-In . SVG Version: 6.00 Build 0)  -->
<svg version="1.1" id="Capa_1" xmlns="http://www.w3.org/2000/svg" xmlns:xlink="http://www.w3.org/1999/xlink" x="0px" y="0px"
	 viewBox="0 0 783.9 297" style="enable-background:new 0 0 783.9 297;" xml:space="preserve">
<style type="text/css">
	.st0{fill:#F75B5A;}
	.st1{enable-background:new    ;}
	.st2{fill:#FFA333;}
</style>
<g>
	<g>
		<g>
			<path class="st0" d="M252.4,293.7c2.2,2.2,5,3.3,7.9,3.3c2.8,0,5.6-1,7.7-3.2l44.7-43.7c2.1-2.1,3.3-4.9,3.3-7.9
				s-1.2-5.8-3.3-7.9L268,190.6c-4.4-4.3-11.4-4.2-15.7,0.1c-4.3,4.4-4.2,11.4,0.1,15.7l25.3,24.8h-28.1c-17.1,0-33.2-7.5-44.2-20.6
				L108.1,77.8c-14.9-21.1-39.2-33.7-65-33.7h-32c-6.1,0-11,5-11,11.1s5,11,11,11h32c18.6,0,36.3,9.1,47.1,24.5L188,223.8
				c0.1,0.2,0.3,0.3,0.4,0.5c15.2,18.4,37.6,29,61.4,29h28.1l-25.3,24.8C248.2,282.4,248.1,289.3,252.4,293.7z"/>
			<path class="st0" d="M312.8,47.2l-45-44.1c-4.4-4.3-11.4-4.2-15.7,0.1c-4.3,4.4-4.2,11.4,0.1,15.7L277.8,44h-28.1
				c-23.8,0-46.2,10.5-61.4,28.9c-0.1,0.1-0.3,0.3-0.4,0.5l-18.3,25c-3.6,4.9-2.6,11.9,2.4,15.5c2,1.4,4.3,2.1,6.5,2.1
				c3.4,0,6.8-1.5,8.9-4.5l18.1-24.6c11-13.2,27-20.6,44.2-20.6h28.1l-25.6,25.1c-4.4,4.3-4.5,11.3-0.1,15.7c2.2,2.2,5,3.3,7.9,3.3
				c2.8,0,5.6-1,7.7-3.2l45-44.1c2.1-2.1,3.3-4.9,3.3-7.9C316.1,52.1,314.9,49.3,312.8,47.2z"/>
			<path class="st0" d="M108.1,219.6l16.1-21.8c3.6-4.9,2.6-11.9-2.4-15.5c-4.9-3.6-11.9-2.6-15.5,2.4l-16.1,22
				c-0.1,0.1-0.1,0.2-0.2,0.3c-10.8,15.1-28.3,24.1-46.9,24.1H11c-6.1,0-11,5-11,11.1s5,11,11,11h32
				C68.9,253.3,93.2,240.7,108.1,219.6z"/>
		</g>
	</g>
</g>
<g class="st1">
	<path class="st2" d="M316.4,128.5h10.2c1.1,0,1.9,0.2,2.6,0.7c0.7,0.5,1.2,1.1,1.4,1.9l7.2,27.4c0.2,0.9,0.5,1.8,0.7,2.8
		c0.2,1,0.4,2.1,0.5,3.2c0.2-1.1,0.5-2.2,0.8-3.2c0.3-1,0.6-1.9,0.8-2.8l8.5-27.4c0.2-0.7,0.7-1.3,1.4-1.8c0.7-0.5,1.6-0.8,2.6-0.8
		h3.6c1.1,0,1.9,0.2,2.6,0.7c0.7,0.5,1.2,1.1,1.4,1.9l8.4,27.4c0.3,0.8,0.5,1.7,0.8,2.7c0.3,0.9,0.5,2,0.8,3c0.2-1.1,0.4-2.1,0.6-3
		c0.2-1,0.4-1.9,0.6-2.7l7.2-27.4c0.2-0.7,0.6-1.3,1.4-1.8c0.7-0.5,1.6-0.8,2.6-0.8h9.6l-16.2,52.5h-11l-9.9-32.5
		c-0.2-0.5-0.3-1.1-0.5-1.7c-0.2-0.6-0.4-1.2-0.5-1.9c-0.2,0.7-0.3,1.3-0.5,1.9c-0.2,0.6-0.4,1.2-0.5,1.7l-10,32.5h-11L316.4,128.5z
		"/>
	<path class="st2" d="M409.7,163.4v17.5h-12.2v-52.5H416c3.7,0,6.9,0.4,9.5,1.3s4.8,2.1,6.6,3.6c1.7,1.5,3,3.3,3.8,5.4
		c0.8,2.1,1.2,4.3,1.2,6.8c0,2.6-0.4,5-1.3,7.2c-0.8,2.2-2.1,4.1-3.9,5.6c-1.7,1.6-3.9,2.8-6.6,3.7s-5.8,1.3-9.4,1.3H409.7z
		 M409.7,154.2h6.3c3.2,0,5.4-0.8,6.8-2.3c1.4-1.5,2.1-3.6,2.1-6.3c0-1.2-0.2-2.3-0.5-3.3c-0.4-1-0.9-1.8-1.6-2.5s-1.7-1.3-2.8-1.6
		c-1.1-0.4-2.4-0.6-4-0.6h-6.3V154.2z"/>
	<path class="st2" d="M485.6,159.8c0.4,1,0.9,2,1.3,3c0.4-1.1,0.8-2.1,1.3-3.1c0.5-1,0.9-2,1.4-2.9l13.5-26.5
		c0.2-0.5,0.5-0.8,0.7-1.1s0.5-0.4,0.8-0.6c0.3-0.1,0.7-0.2,1.1-0.2c0.4,0,0.9,0,1.4,0h9.3v52.4h-10.7v-30.2c0-1.5,0.1-3,0.2-4.8
		l-13.9,27c-0.4,0.8-1,1.5-1.7,1.9c-0.7,0.4-1.6,0.6-2.5,0.6H486c-0.9,0-1.8-0.2-2.5-0.6c-0.7-0.4-1.3-1.1-1.7-1.9l-14-27
		c0.1,0.8,0.2,1.7,0.2,2.5c0,0.8,0.1,1.6,0.1,2.3v30.2h-10.7v-52.4h9.3c0.5,0,1,0,1.4,0s0.8,0.1,1.1,0.2c0.3,0.1,0.6,0.3,0.8,0.6
		s0.5,0.6,0.7,1.1l13.5,26.6C484.7,157.9,485.1,158.8,485.6,159.8z"/>
	<path class="st2" d="M541.6,143c2.8,0,5.4,0.4,7.7,1.3c2.3,0.9,4.3,2.2,6,3.8s3,3.7,3.9,6c0.9,2.4,1.4,5,1.4,8c0,3-0.5,5.7-1.4,8
		c-0.9,2.4-2.2,4.4-3.9,6.1s-3.7,3-6,3.9c-2.3,0.9-4.9,1.4-7.7,1.4c-2.9,0-5.5-0.5-7.8-1.4c-2.3-0.9-4.4-2.2-6-3.9
		c-1.7-1.7-3-3.7-3.9-6.1c-0.9-2.4-1.4-5.1-1.4-8c0-3,0.5-5.6,1.4-8c0.9-2.4,2.2-4.4,3.9-6c1.7-1.7,3.7-2.9,6-3.8
		C536.1,143.5,538.7,143,541.6,143z M541.6,173.2c2.6,0,4.5-0.9,5.7-2.7c1.2-1.8,1.8-4.6,1.8-8.3c0-3.7-0.6-6.4-1.8-8.2
		c-1.2-1.8-3.1-2.7-5.7-2.7c-2.6,0-4.6,0.9-5.8,2.7s-1.8,4.5-1.8,8.2c0,3.7,0.6,6.5,1.8,8.3C537,172.3,538.9,173.2,541.6,173.2z"/>
	<path class="st2" d="M566.7,180.9v-37.3h6.6c0.6,0,1,0,1.4,0.1c0.4,0.1,0.7,0.2,0.9,0.5c0.3,0.2,0.4,0.5,0.6,0.8
		c0.1,0.3,0.2,0.7,0.3,1.2l0.6,3.5c1.4-2.1,2.9-3.8,4.6-5c1.7-1.2,3.6-1.8,5.6-1.8c1.7,0,3.1,0.4,4.1,1.2l-1.4,8.2
		c-0.1,0.5-0.3,0.9-0.6,1.1c-0.3,0.2-0.7,0.3-1.2,0.3c-0.4,0-0.9-0.1-1.4-0.2c-0.6-0.1-1.2-0.2-2.1-0.2c-2.9,0-5.2,1.6-6.9,4.7v22.9
		H566.7z"/>
	<path class="st2" d="M596.5,192.8v-49.2h6.9c0.7,0,1.3,0.2,1.7,0.5c0.5,0.3,0.8,0.8,1,1.4l0.8,2.7c0.7-0.8,1.5-1.5,2.3-2.2
		c0.8-0.6,1.7-1.2,2.7-1.7c0.9-0.5,2-0.8,3.1-1.1c1.1-0.3,2.3-0.4,3.6-0.4c1.9,0,3.7,0.4,5.4,1.3s3.1,2.1,4.3,3.7
		c1.2,1.6,2.1,3.6,2.8,6c0.7,2.4,1,5,1,8c0,2.8-0.4,5.4-1.2,7.8s-1.9,4.4-3.3,6.2s-3.1,3.1-5,4.1c-2,1-4.1,1.5-6.5,1.5
		c-1.9,0-3.6-0.3-4.9-0.8c-1.3-0.6-2.5-1.3-3.6-2.2v14.3H596.5z M614.7,151.4c-0.8,0-1.6,0.1-2.2,0.2c-0.7,0.2-1.3,0.4-1.8,0.7
		c-0.6,0.3-1.1,0.7-1.6,1.1c-0.5,0.4-1,1-1.4,1.5v15.8c0.8,0.9,1.8,1.6,2.7,2c1,0.4,2,0.6,3.1,0.6c1,0,2-0.2,2.8-0.6
		c0.9-0.4,1.6-1.1,2.2-2c0.6-0.9,1.1-2.1,1.5-3.5c0.4-1.4,0.5-3.2,0.5-5.3c0-2-0.1-3.6-0.4-5c-0.3-1.3-0.7-2.4-1.2-3.3
		s-1.1-1.4-1.9-1.8C616.4,151.6,615.6,151.4,614.7,151.4z"/>
	<path class="st2" d="M638.1,180.9V127h11.2v19.8c1.3-1.2,2.8-2.1,4.4-2.8s3.4-1.1,5.6-1.1c2,0,3.8,0.4,5.4,1.1c1.6,0.7,2.9,1.7,4,3
		c1.1,1.3,1.9,2.8,2.4,4.5c0.6,1.7,0.8,3.6,0.8,5.7v23.7h-11.2v-23.7c0-1.8-0.4-3.2-1.3-4.3c-0.8-1-2.1-1.5-3.7-1.5
		c-1.2,0-2.4,0.3-3.5,0.8c-1.1,0.5-2.1,1.2-3.1,2.1v26.6H638.1z"/>
	<path class="st2" d="M695.8,143c2.5,0,4.7,0.4,6.8,1.2c2.1,0.8,3.8,1.9,5.3,3.3c1.5,1.5,2.6,3.3,3.5,5.4s1.2,4.5,1.2,7.2
		c0,0.8,0,1.5-0.1,2.1c-0.1,0.5-0.2,0.9-0.4,1.3c-0.2,0.3-0.4,0.5-0.8,0.6s-0.7,0.2-1.2,0.2h-21.5c0.4,3.1,1.3,5.4,2.8,6.8
		c1.5,1.4,3.5,2.1,5.9,2.1c1.3,0,2.4-0.2,3.3-0.5c0.9-0.3,1.8-0.7,2.5-1s1.4-0.7,2-1c0.6-0.3,1.3-0.5,1.9-0.5c0.9,0,1.6,0.3,2,1
		l3.2,4c-1.2,1.3-2.4,2.4-3.7,3.2s-2.7,1.5-4.1,1.9s-2.8,0.8-4.2,1c-1.4,0.2-2.7,0.3-4,0.3c-2.6,0-5.1-0.4-7.4-1.3
		c-2.3-0.9-4.3-2.1-6-3.8c-1.7-1.7-3.1-3.8-4.1-6.3c-1-2.5-1.5-5.4-1.5-8.7c0-2.5,0.4-4.9,1.3-7.1c0.9-2.2,2.1-4.2,3.7-5.9
		s3.5-3,5.8-4C690.4,143.5,693,143,695.8,143z M696,150.7c-2.1,0-3.8,0.6-5,1.8c-1.2,1.2-2,3-2.4,5.2h13.9c0-0.9-0.1-1.8-0.3-2.6
		c-0.2-0.8-0.6-1.6-1.1-2.2c-0.5-0.7-1.2-1.2-2-1.6S697.2,150.7,696,150.7z"/>
	<path class="st2" d="M725.8,161.6l-12-18h10.7c0.8,0,1.4,0.1,1.7,0.3c0.4,0.2,0.7,0.5,1,1l6.7,11.1c0.1-0.4,0.3-0.9,0.5-1.3
		c0.2-0.4,0.5-0.8,0.7-1.3l4.8-8.3c0.3-0.6,0.7-0.9,1-1.2c0.4-0.2,0.9-0.3,1.4-0.3h10.2l-12,17.5l12.5,19.8h-10.7
		c-0.8,0-1.4-0.2-1.9-0.6c-0.5-0.4-0.9-0.8-1.2-1.4l-6.7-11.4c-0.1,0.4-0.3,0.8-0.4,1.2c-0.2,0.4-0.3,0.7-0.5,1l-5.5,9.3
		c-0.3,0.5-0.7,1-1.2,1.4c-0.5,0.4-1.1,0.6-1.8,0.6h-9.9L725.8,161.6z"/>
	<path class="st2" d="M771.2,181.5c-1.8,0-3.3-0.3-4.7-0.8c-1.4-0.5-2.5-1.2-3.4-2.2s-1.6-2.1-2.1-3.4c-0.5-1.3-0.7-2.8-0.7-4.5
		v-19.3h-3.2c-0.6,0-1.1-0.2-1.5-0.6s-0.6-0.9-0.6-1.6v-4.4l5.9-1.2l2.2-9.1c0.3-1.2,1.1-1.7,2.4-1.7h5.8v10.9h9.1v7.6h-9.1v18.5
		c0,0.9,0.2,1.6,0.6,2.1c0.4,0.6,1,0.8,1.8,0.8c0.4,0,0.8,0,1-0.1s0.5-0.2,0.7-0.3c0.2-0.1,0.4-0.2,0.6-0.3s0.4-0.1,0.6-0.1
		c0.3,0,0.6,0.1,0.8,0.2c0.2,0.2,0.4,0.4,0.6,0.7l3.4,5.3c-1.4,1.1-3.1,1.9-4.9,2.4C775,181.2,773.1,181.5,771.2,181.5z"/>
</g>
</svg>
